<?xml version="1.0" encoding="UTF-8"?>
<svg id="Layer_1" data-name="Layer 1" xmlns="http://www.w3.org/2000/svg" viewBox="0 0 1000 1000">
  <defs>
    <style>
      .cls-1 {
        fill: #cf2b2c;
      }

      .cls-1, .cls-2 {
        stroke-width: 0px;
      }

      .cls-2 {
        fill: #dad9d9;
      }
    </style>
  </defs>
  <circle class="cls-2" cx="500" cy="500" r="500"/>
  <path class="cls-1" d="m657.23,487.91v22.31c0,11.67-5.56,20.82-16.68,27.46l-226.61,133.52c-6.62,4.11-12.89,6.15-18.82,6.15-7.3,0-13.86-2.74-19.68-8.22-5.82-5.48-8.73-12.44-8.73-20.89,0-10.96,4.31-18.94,12.95-23.97l211.53-125.37-211.54-124.56c-8.62-5.49-12.93-13.73-12.93-24.72,0-8.46,2.91-15.44,8.73-20.94,5.82-5.49,12.37-8.24,19.68-8.24,5.7,0,11.98,2.06,18.82,6.16l226.58,133.84c11.14,6.64,16.72,15.79,16.72,27.46Z"/>
</svg>