<svg width="398" height="531" viewBox="0 0 398 531" fill="none" xmlns="http://www.w3.org/2000/svg">
<rect width="398" height="531" rx="28" fill="#939393"/>
<g style="mix-blend-mode:darken">
<path d="M0 28C0 12.536 12.536 0 28 0H370C385.464 0 398 12.536 398 28V36.875H0V28Z" fill="#767676" fill-opacity="0.7"/>
</g>
<g filter="url(#filter0_d_78_8)">
<circle cx="20" cy="21" r="6" fill="#E73434"/>
</g>
<g filter="url(#filter1_d_78_8)">
<circle cx="40" cy="20.7244" r="6" fill="#FFC633"/>
</g>
<path d="M51.62 255.08C46.76 255.08 42.23 254.3 38.03 252.74C33.89 251.12 30.29 248.84 27.23 245.9C24.17 242.96 21.77 239.51 20.03 235.55C18.35 231.59 17.51 227.24 17.51 222.5C17.51 217.76 18.35 213.41 20.03 209.45C21.77 205.49 24.17 202.04 27.23 199.1C30.35 196.16 33.98 193.91 38.12 192.35C42.26 190.73 46.79 189.92 51.71 189.92C57.17 189.92 62.09 190.88 66.47 192.8C70.91 194.66 74.63 197.42 77.63 201.08L68.27 209.72C66.11 207.26 63.71 205.43 61.07 204.23C58.43 202.97 55.55 202.34 52.43 202.34C49.49 202.34 46.79 202.82 44.33 203.78C41.87 204.74 39.74 206.12 37.94 207.92C36.14 209.72 34.73 211.85 33.71 214.31C32.75 216.77 32.27 219.5 32.27 222.5C32.27 225.5 32.75 228.23 33.71 230.69C34.73 233.15 36.14 235.28 37.94 237.08C39.74 238.88 41.87 240.26 44.33 241.22C46.79 242.18 49.49 242.66 52.43 242.66C55.55 242.66 58.43 242.06 61.07 240.86C63.71 239.6 66.11 237.71 68.27 235.19L77.63 243.83C74.63 247.49 70.91 250.28 66.47 252.2C62.09 254.12 57.14 255.08 51.62 255.08ZM107.856 254.72C102.696 254.72 98.1059 253.64 94.0859 251.48C90.1259 249.32 86.9759 246.38 84.6359 242.66C82.3559 238.88 81.2159 234.59 81.2159 229.79C81.2159 224.93 82.3559 220.64 84.6359 216.92C86.9759 213.14 90.1259 210.2 94.0859 208.1C98.1059 205.94 102.696 204.86 107.856 204.86C112.956 204.86 117.516 205.94 121.536 208.1C125.556 210.2 128.706 213.11 130.986 216.83C133.266 220.55 134.406 224.87 134.406 229.79C134.406 234.59 133.266 238.88 130.986 242.66C128.706 246.38 125.556 249.32 121.536 251.48C117.516 253.64 112.956 254.72 107.856 254.72ZM107.856 243.2C110.196 243.2 112.296 242.66 114.156 241.58C116.016 240.5 117.486 238.97 118.566 236.99C119.646 234.95 120.186 232.55 120.186 229.79C120.186 226.97 119.646 224.57 118.566 222.59C117.486 220.61 116.016 219.08 114.156 218C112.296 216.92 110.196 216.38 107.856 216.38C105.516 216.38 103.416 216.92 101.556 218C99.6959 219.08 98.1959 220.61 97.0559 222.59C95.9759 224.57 95.4359 226.97 95.4359 229.79C95.4359 232.55 95.9759 234.95 97.0559 236.99C98.1959 238.97 99.6959 240.5 101.556 241.58C103.416 242.66 105.516 243.2 107.856 243.2ZM205.801 204.86C209.641 204.86 213.031 205.64 215.971 207.2C218.971 208.7 221.311 211.04 222.991 214.22C224.731 217.34 225.601 221.36 225.601 226.28V254H211.561V228.44C211.561 224.54 210.751 221.66 209.131 219.8C207.511 217.94 205.231 217.01 202.291 217.01C200.251 217.01 198.421 217.49 196.801 218.45C195.181 219.35 193.921 220.73 193.021 222.59C192.121 224.45 191.671 226.82 191.671 229.7V254H177.631V228.44C177.631 224.54 176.821 221.66 175.201 219.8C173.641 217.94 171.391 217.01 168.451 217.01C166.411 217.01 164.581 217.49 162.961 218.45C161.341 219.35 160.081 220.73 159.181 222.59C158.281 224.45 157.831 226.82 157.831 229.7V254H143.791V205.58H157.201V218.81L154.681 214.94C156.361 211.64 158.731 209.15 161.791 207.47C164.911 205.73 168.451 204.86 172.411 204.86C176.851 204.86 180.721 206 184.021 208.28C187.381 210.5 189.601 213.92 190.681 218.54L185.731 217.19C187.351 213.41 189.931 210.41 193.471 208.19C197.071 205.97 201.181 204.86 205.801 204.86ZM238.185 254V205.58H252.225V254H238.185ZM245.205 198.83C242.625 198.83 240.525 198.08 238.905 196.58C237.285 195.08 236.475 193.22 236.475 191C236.475 188.78 237.285 186.92 238.905 185.42C240.525 183.92 242.625 183.17 245.205 183.17C247.785 183.17 249.885 183.89 251.505 185.33C253.125 186.71 253.935 188.51 253.935 190.73C253.935 193.07 253.125 195.02 251.505 196.58C249.945 198.08 247.845 198.83 245.205 198.83ZM294.685 204.86C298.525 204.86 301.945 205.64 304.945 207.2C308.005 208.7 310.405 211.04 312.145 214.22C313.885 217.34 314.755 221.36 314.755 226.28V254H300.715V228.44C300.715 224.54 299.845 221.66 298.105 219.8C296.425 217.94 294.025 217.01 290.905 217.01C288.685 217.01 286.675 217.49 284.875 218.45C283.135 219.35 281.755 220.76 280.735 222.68C279.775 224.6 279.295 227.06 279.295 230.06V254H265.255V205.58H278.665V218.99L276.145 214.94C277.885 211.7 280.375 209.21 283.615 207.47C286.855 205.73 290.545 204.86 294.685 204.86ZM350.604 272.18C346.044 272.18 341.634 271.61 337.374 270.47C333.174 269.39 329.664 267.74 326.844 265.52L332.424 255.44C334.464 257.12 337.044 258.44 340.164 259.4C343.344 260.42 346.464 260.93 349.524 260.93C354.504 260.93 358.104 259.82 360.324 257.6C362.604 255.38 363.744 252.08 363.744 247.7V240.41L364.644 228.26L364.464 216.02V205.58H377.784V245.9C377.784 254.9 375.444 261.53 370.764 265.79C366.084 270.05 359.364 272.18 350.604 272.18ZM348.444 251.66C343.944 251.66 339.864 250.7 336.204 248.78C332.604 246.8 329.694 244.07 327.474 240.59C325.314 237.05 324.234 232.94 324.234 228.26C324.234 223.52 325.314 219.41 327.474 215.93C329.694 212.39 332.604 209.66 336.204 207.74C339.864 205.82 343.944 204.86 348.444 204.86C352.524 204.86 356.124 205.7 359.244 207.38C362.364 209 364.794 211.55 366.534 215.03C368.274 218.45 369.144 222.86 369.144 228.26C369.144 233.6 368.274 238.01 366.534 241.49C364.794 244.91 362.364 247.46 359.244 249.14C356.124 250.82 352.524 251.66 348.444 251.66ZM351.234 240.14C353.694 240.14 355.884 239.66 357.804 238.7C359.724 237.68 361.224 236.27 362.304 234.47C363.384 232.67 363.924 230.6 363.924 228.26C363.924 225.86 363.384 223.79 362.304 222.05C361.224 220.25 359.724 218.87 357.804 217.91C355.884 216.89 353.694 216.38 351.234 216.38C348.774 216.38 346.584 216.89 344.664 217.91C342.744 218.87 341.214 220.25 340.074 222.05C338.994 223.79 338.454 225.86 338.454 228.26C338.454 230.6 338.994 232.67 340.074 234.47C341.214 236.27 342.744 237.68 344.664 238.7C346.584 239.66 348.774 240.14 351.234 240.14ZM36.77 364.72C32.63 364.72 28.64 364.24 24.8 363.28C21.02 362.26 18.02 361 15.8 359.5L20.48 349.42C22.7 350.8 25.31 351.94 28.31 352.84C31.37 353.68 34.37 354.1 37.31 354.1C40.55 354.1 42.83 353.71 44.15 352.93C45.53 352.15 46.22 351.07 46.22 349.69C46.22 348.55 45.68 347.71 44.6 347.17C43.58 346.57 42.2 346.12 40.46 345.82C38.72 345.52 36.8 345.22 34.7 344.92C32.66 344.62 30.59 344.23 28.49 343.75C26.39 343.21 24.47 342.43 22.73 341.41C20.99 340.39 19.58 339.01 18.5 337.27C17.48 335.53 16.97 333.28 16.97 330.52C16.97 327.46 17.84 324.76 19.58 322.42C21.38 320.08 23.96 318.25 27.32 316.93C30.68 315.55 34.7 314.86 39.38 314.86C42.68 314.86 46.04 315.22 49.46 315.94C52.88 316.66 55.73 317.71 58.01 319.09L53.33 329.08C50.99 327.7 48.62 326.77 46.22 326.29C43.88 325.75 41.6 325.48 39.38 325.48C36.26 325.48 33.98 325.9 32.54 326.74C31.1 327.58 30.38 328.66 30.38 329.98C30.38 331.18 30.89 332.08 31.91 332.68C32.99 333.28 34.4 333.76 36.14 334.12C37.88 334.48 39.77 334.81 41.81 335.11C43.91 335.35 46.01 335.74 48.11 336.28C50.21 336.82 52.1 337.6 53.78 338.62C55.52 339.58 56.93 340.93 58.01 342.67C59.09 344.35 59.63 346.57 59.63 349.33C59.63 352.33 58.73 355 56.93 357.34C55.13 359.62 52.52 361.42 49.1 362.74C45.74 364.06 41.63 364.72 36.77 364.72ZM91.3325 364.72C86.1725 364.72 81.5825 363.64 77.5625 361.48C73.6025 359.32 70.4525 356.38 68.1125 352.66C65.8325 348.88 64.6925 344.59 64.6925 339.79C64.6925 334.93 65.8325 330.64 68.1125 326.92C70.4525 323.14 73.6025 320.2 77.5625 318.1C81.5825 315.94 86.1725 314.86 91.3325 314.86C96.4325 314.86 100.993 315.94 105.013 318.1C109.033 320.2 112.183 323.11 114.463 326.83C116.743 330.55 117.883 334.87 117.883 339.79C117.883 344.59 116.743 348.88 114.463 352.66C112.183 356.38 109.033 359.32 105.013 361.48C100.993 363.64 96.4325 364.72 91.3325 364.72ZM91.3325 353.2C93.6725 353.2 95.7725 352.66 97.6325 351.58C99.4925 350.5 100.963 348.97 102.043 346.99C103.123 344.95 103.663 342.55 103.663 339.79C103.663 336.97 103.123 334.57 102.043 332.59C100.963 330.61 99.4925 329.08 97.6325 328C95.7725 326.92 93.6725 326.38 91.3325 326.38C88.9925 326.38 86.8925 326.92 85.0325 328C83.1725 329.08 81.6725 330.61 80.5325 332.59C79.4525 334.57 78.9125 336.97 78.9125 339.79C78.9125 342.55 79.4525 344.95 80.5325 346.99C81.6725 348.97 83.1725 350.5 85.0325 351.58C86.8925 352.66 88.9925 353.2 91.3325 353.2ZM150.307 364.72C145.147 364.72 140.557 363.64 136.537 361.48C132.577 359.32 129.427 356.38 127.087 352.66C124.807 348.88 123.667 344.59 123.667 339.79C123.667 334.93 124.807 330.64 127.087 326.92C129.427 323.14 132.577 320.2 136.537 318.1C140.557 315.94 145.147 314.86 150.307 314.86C155.407 314.86 159.967 315.94 163.987 318.1C168.007 320.2 171.157 323.11 173.437 326.83C175.717 330.55 176.857 334.87 176.857 339.79C176.857 344.59 175.717 348.88 173.437 352.66C171.157 356.38 168.007 359.32 163.987 361.48C159.967 363.64 155.407 364.72 150.307 364.72ZM150.307 353.2C152.647 353.2 154.747 352.66 156.607 351.58C158.467 350.5 159.937 348.97 161.017 346.99C162.097 344.95 162.637 342.55 162.637 339.79C162.637 336.97 162.097 334.57 161.017 332.59C159.937 330.61 158.467 329.08 156.607 328C154.747 326.92 152.647 326.38 150.307 326.38C147.967 326.38 145.867 326.92 144.007 328C142.147 329.08 140.647 330.61 139.507 332.59C138.427 334.57 137.887 336.97 137.887 339.79C137.887 342.55 138.427 344.95 139.507 346.99C140.647 348.97 142.147 350.5 144.007 351.58C145.867 352.66 147.967 353.2 150.307 353.2ZM215.672 314.86C219.512 314.86 222.932 315.64 225.932 317.2C228.992 318.7 231.392 321.04 233.132 324.22C234.872 327.34 235.742 331.36 235.742 336.28V364H221.702V338.44C221.702 334.54 220.832 331.66 219.092 329.8C217.412 327.94 215.012 327.01 211.892 327.01C209.672 327.01 207.662 327.49 205.862 328.45C204.122 329.35 202.742 330.76 201.722 332.68C200.762 334.6 200.282 337.06 200.282 340.06V364H186.242V315.58H199.652V328.99L197.132 324.94C198.872 321.7 201.362 319.21 204.602 317.47C207.842 315.73 211.532 314.86 215.672 314.86ZM253.778 364.72C251.378 364.72 249.308 363.91 247.568 362.29C245.888 360.61 245.048 358.48 245.048 355.9C245.048 353.32 245.888 351.25 247.568 349.69C249.308 348.07 251.378 347.26 253.778 347.26C256.238 347.26 258.308 348.07 259.988 349.69C261.668 351.25 262.508 353.32 262.508 355.9C262.508 358.48 261.668 360.61 259.988 362.29C258.308 363.91 256.238 364.72 253.778 364.72ZM277.333 364.72C274.933 364.72 272.863 363.91 271.123 362.29C269.443 360.61 268.603 358.48 268.603 355.9C268.603 353.32 269.443 351.25 271.123 349.69C272.863 348.07 274.933 347.26 277.333 347.26C279.793 347.26 281.863 348.07 283.543 349.69C285.223 351.25 286.063 353.32 286.063 355.9C286.063 358.48 285.223 360.61 283.543 362.29C281.863 363.91 279.793 364.72 277.333 364.72ZM300.888 364.72C298.488 364.72 296.418 363.91 294.678 362.29C292.998 360.61 292.158 358.48 292.158 355.9C292.158 353.32 292.998 351.25 294.678 349.69C296.418 348.07 298.488 347.26 300.888 347.26C303.348 347.26 305.418 348.07 307.098 349.69C308.778 351.25 309.618 353.32 309.618 355.9C309.618 358.48 308.778 360.61 307.098 362.29C305.418 363.91 303.348 364.72 300.888 364.72Z" fill="white"/>
<g filter="url(#filter2_d_78_8)">
<circle cx="59" cy="20.7244" r="6" fill="#25C82C"/>
</g>
<defs>
<filter id="filter0_d_78_8" x="10" y="15" width="20" height="20" filterUnits="userSpaceOnUse" color-interpolation-filters="sRGB">
<feFlood flood-opacity="0" result="BackgroundImageFix"/>
<feColorMatrix in="SourceAlpha" type="matrix" values="0 0 0 0 0 0 0 0 0 0 0 0 0 0 0 0 0 0 127 0" result="hardAlpha"/>
<feOffset dy="4"/>
<feGaussianBlur stdDeviation="2"/>
<feComposite in2="hardAlpha" operator="out"/>
<feColorMatrix type="matrix" values="0 0 0 0 0 0 0 0 0 0 0 0 0 0 0 0 0 0 0.25 0"/>
<feBlend mode="normal" in2="BackgroundImageFix" result="effect1_dropShadow_78_8"/>
<feBlend mode="normal" in="SourceGraphic" in2="effect1_dropShadow_78_8" result="shape"/>
</filter>
<filter id="filter1_d_78_8" x="30" y="14.7244" width="20" height="20" filterUnits="userSpaceOnUse" color-interpolation-filters="sRGB">
<feFlood flood-opacity="0" result="BackgroundImageFix"/>
<feColorMatrix in="SourceAlpha" type="matrix" values="0 0 0 0 0 0 0 0 0 0 0 0 0 0 0 0 0 0 127 0" result="hardAlpha"/>
<feOffset dy="4"/>
<feGaussianBlur stdDeviation="2"/>
<feComposite in2="hardAlpha" operator="out"/>
<feColorMatrix type="matrix" values="0 0 0 0 0 0 0 0 0 0 0 0 0 0 0 0 0 0 0.25 0"/>
<feBlend mode="normal" in2="BackgroundImageFix" result="effect1_dropShadow_78_8"/>
<feBlend mode="normal" in="SourceGraphic" in2="effect1_dropShadow_78_8" result="shape"/>
</filter>
<filter id="filter2_d_78_8" x="49" y="14.7244" width="20" height="20" filterUnits="userSpaceOnUse" color-interpolation-filters="sRGB">
<feFlood flood-opacity="0" result="BackgroundImageFix"/>
<feColorMatrix in="SourceAlpha" type="matrix" values="0 0 0 0 0 0 0 0 0 0 0 0 0 0 0 0 0 0 127 0" result="hardAlpha"/>
<feOffset dy="4"/>
<feGaussianBlur stdDeviation="2"/>
<feComposite in2="hardAlpha" operator="out"/>
<feColorMatrix type="matrix" values="0 0 0 0 0 0 0 0 0 0 0 0 0 0 0 0 0 0 0.25 0"/>
<feBlend mode="normal" in2="BackgroundImageFix" result="effect1_dropShadow_78_8"/>
<feBlend mode="normal" in="SourceGraphic" in2="effect1_dropShadow_78_8" result="shape"/>
</filter>
</defs>
</svg>
