<?xml version="1.0" encoding="UTF-8"?>
<svg id="Layer_1" data-name="Layer 1"
  xmlns="http://www.w3.org/2000/svg" viewBox="0 0 1000 1000">
  <defs>
    <style>
      .cls-1 {
        fill: #cf2b2c;
      }

      .cls-1, .cls-2 {
        stroke-width: 0px;
      }

      .cls-2 {
        fill: #dad9d9;
      }
    </style>
  </defs>
  <circle class="cls-2" cx="500" cy="500" r="500"/>
  <path class="cls-1" d="m359.19,510.22v-22.23c0-11.4,5.83-20.52,17.5-27.36l226.48-134.02c6.16-4.11,12.32-6.16,18.48-6.16,7.3,0,13.86,2.85,19.68,8.57,5.82,5.71,8.73,12.68,8.73,20.9,0,10.74-4.22,18.61-12.66,23.64l-211.82,125.35,211.92,124.6c8.37,5.49,12.56,13.61,12.56,24.35,0,8.23-2.91,15.21-8.73,20.93-5.82,5.72-12.38,8.57-19.68,8.57-5.7,0-11.86-2.05-18.48-6.15l-226.56-133.61c-11.61-6.38-17.42-15.51-17.42-27.37Z"/>
</svg>