<svg width="100" height="50" viewBox="0 0 100 50" fill="none" xmlns="http://www.w3.org/2000/svg">
<rect width="100" height="50" rx="10" fill="#3F3F3F"/>
<path d="M12.8955 32.24C11.7889 32.24 10.7622 32.06 9.81555 31.7C8.88221 31.34 8.06888 30.8333 7.37555 30.18C6.69555 29.5267 6.16221 28.76 5.77555 27.88C5.40221 27 5.21555 26.04 5.21555 25C5.21555 23.96 5.40221 23 5.77555 22.12C6.16221 21.24 6.70221 20.4733 7.39555 19.82C8.08888 19.1667 8.90221 18.66 9.83555 18.3C10.7689 17.94 11.7822 17.76 12.8755 17.76C13.9822 17.76 14.9955 17.94 15.9155 18.3C16.8489 18.66 17.6555 19.1667 18.3355 19.82C19.0289 20.4733 19.5689 21.24 19.9555 22.12C20.3422 22.9867 20.5355 23.9467 20.5355 25C20.5355 26.04 20.3422 27.0067 19.9555 27.9C19.5689 28.78 19.0289 29.5467 18.3355 30.2C17.6555 30.84 16.8489 31.34 15.9155 31.7C14.9955 32.06 13.9889 32.24 12.8955 32.24ZM12.8755 29.48C13.5022 29.48 14.0755 29.3733 14.5955 29.16C15.1289 28.9467 15.5955 28.64 15.9955 28.24C16.3955 27.84 16.7022 27.3667 16.9155 26.82C17.1422 26.2733 17.2555 25.6667 17.2555 25C17.2555 24.3333 17.1422 23.7267 16.9155 23.18C16.7022 22.6333 16.3955 22.16 15.9955 21.76C15.6089 21.36 15.1489 21.0533 14.6155 20.84C14.0822 20.6267 13.5022 20.52 12.8755 20.52C12.2489 20.52 11.6689 20.6267 11.1355 20.84C10.6155 21.0533 10.1555 21.36 9.75555 21.76C9.35555 22.16 9.04221 22.6333 8.81555 23.18C8.60221 23.7267 8.49555 24.3333 8.49555 25C8.49555 25.6533 8.60221 26.26 8.81555 26.82C9.04221 27.3667 9.34888 27.84 9.73555 28.24C10.1355 28.64 10.6022 28.9467 11.1355 29.16C11.6689 29.3733 12.2489 29.48 12.8755 29.48ZM29.1105 32.16C28.2039 32.16 27.4105 31.96 26.7305 31.56C26.0505 31.16 25.5172 30.5533 25.1305 29.74C24.7572 28.9133 24.5705 27.8733 24.5705 26.62C24.5705 25.3533 24.7505 24.3133 25.1105 23.5C25.4705 22.6867 25.9905 22.08 26.6705 21.68C27.3505 21.28 28.1639 21.08 29.1105 21.08C30.1239 21.08 31.0305 21.3133 31.8305 21.78C32.6439 22.2333 33.2839 22.8733 33.7505 23.7C34.2305 24.5267 34.4705 25.5 34.4705 26.62C34.4705 27.7533 34.2305 28.7333 33.7505 29.56C33.2839 30.3867 32.6439 31.0267 31.8305 31.48C31.0305 31.9333 30.1239 32.16 29.1105 32.16ZM22.7505 35.88V21.24H25.7305V23.44L25.6705 26.64L25.8705 29.82V35.88H22.7505ZM28.5705 29.6C29.0905 29.6 29.5505 29.48 29.9505 29.24C30.3639 29 30.6905 28.66 30.9305 28.22C31.1839 27.7667 31.3105 27.2333 31.3105 26.62C31.3105 25.9933 31.1839 25.46 30.9305 25.02C30.6905 24.58 30.3639 24.24 29.9505 24C29.5505 23.76 29.0905 23.64 28.5705 23.64C28.0505 23.64 27.5839 23.76 27.1705 24C26.7572 24.24 26.4305 24.58 26.1905 25.02C25.9505 25.46 25.8305 25.9933 25.8305 26.62C25.8305 27.2333 25.9505 27.7667 26.1905 28.22C26.4305 28.66 26.7572 29 27.1705 29.24C27.5839 29.48 28.0505 29.6 28.5705 29.6ZM41.8991 32.16C40.6725 32.16 39.5925 31.92 38.6591 31.44C37.7391 30.96 37.0258 30.3067 36.5191 29.48C36.0125 28.64 35.7591 27.6867 35.7591 26.62C35.7591 25.54 36.0058 24.5867 36.4991 23.76C37.0058 22.92 37.6925 22.2667 38.5591 21.8C39.4258 21.32 40.4058 21.08 41.4991 21.08C42.5525 21.08 43.4991 21.3067 44.3391 21.76C45.1925 22.2 45.8658 22.84 46.3591 23.68C46.8525 24.5067 47.0991 25.5 47.0991 26.66C47.0991 26.78 47.0925 26.92 47.0791 27.08C47.0658 27.2267 47.0525 27.3667 47.0391 27.5H38.2991V25.68H45.3991L44.1991 26.22C44.1991 25.66 44.0858 25.1733 43.8591 24.76C43.6325 24.3467 43.3191 24.0267 42.9191 23.8C42.5191 23.56 42.0525 23.44 41.5191 23.44C40.9858 23.44 40.5125 23.56 40.0991 23.8C39.6991 24.0267 39.3858 24.3533 39.1591 24.78C38.9325 25.1933 38.8191 25.6867 38.8191 26.26V26.74C38.8191 27.3267 38.9458 27.8467 39.1991 28.3C39.4658 28.74 39.8325 29.08 40.2991 29.32C40.7791 29.5467 41.3391 29.66 41.9791 29.66C42.5525 29.66 43.0525 29.5733 43.4791 29.4C43.9191 29.2267 44.3191 28.9667 44.6791 28.62L46.3391 30.42C45.8458 30.98 45.2258 31.4133 44.4791 31.72C43.7325 32.0133 42.8725 32.16 41.8991 32.16ZM55.7163 21.08C56.5697 21.08 57.3297 21.2533 57.9963 21.6C58.6763 21.9333 59.2097 22.4533 59.5963 23.16C59.983 23.8533 60.1763 24.7467 60.1763 25.84V32H57.0563V26.32C57.0563 25.4533 56.863 24.8133 56.4763 24.4C56.103 23.9867 55.5697 23.78 54.8763 23.78C54.383 23.78 53.9363 23.8867 53.5363 24.1C53.1497 24.3 52.843 24.6133 52.6163 25.04C52.403 25.4667 52.2963 26.0133 52.2963 26.68V32H49.1763V21.24H52.1563V24.22L51.5963 23.32C51.983 22.6 52.5363 22.0467 53.2563 21.66C53.9763 21.2733 54.7963 21.08 55.7163 21.08Z" fill="#D9D9D9"/>
<g filter="url(#filter0_d_0_1)">
<path d="M71 22.2346C71 21.13 71.8954 20.2346 73 20.2346H82C83.1046 20.2346 84 21.13 84 22.2346V31.2346C84 32.3392 83.1046 33.2346 82 33.2346H73C71.8954 33.2346 71 32.3392 71 31.2346V22.2346Z" stroke="#D9D9D9" stroke-width="2" shape-rendering="crispEdges"/>
</g>
<rect x="77" y="16" width="11" height="11" fill="#3F3F3F"/>
<rect x="83" y="31.2346" width="8" height="2" rx="1" transform="rotate(-90 83 31.2346)" fill="#D9D9D9"/>
<rect x="73" y="19.2346" width="8" height="2" rx="1" fill="#D9D9D9"/>
<g filter="url(#filter1_d_0_1)">
<path d="M75.0257 28.037C74.6352 28.4276 74.6352 29.0607 75.0257 29.4512C75.4162 29.8418 76.0494 29.8418 76.4399 29.4512L75.0257 28.037ZM89.4607 16.0162C89.4607 15.4639 89.013 15.0162 88.4607 15.0162L79.4607 15.0162C78.9084 15.0162 78.4607 15.4639 78.4607 16.0162C78.4607 16.5685 78.9084 17.0162 79.4607 17.0162L87.4607 17.0162L87.4607 25.0162C87.4607 25.5685 87.9084 26.0162 88.4607 26.0162C89.013 26.0162 89.4607 25.5685 89.4607 25.0162L89.4607 16.0162ZM76.4399 29.4512L89.1678 16.7233L87.7536 15.3091L75.0257 28.037L76.4399 29.4512Z" fill="#D9D9D9"/>
</g>
<defs>
<filter id="filter0_d_0_1" x="66" y="19.2346" width="23" height="23" filterUnits="userSpaceOnUse" color-interpolation-filters="sRGB">
<feFlood flood-opacity="0" result="BackgroundImageFix"/>
<feColorMatrix in="SourceAlpha" type="matrix" values="0 0 0 0 0 0 0 0 0 0 0 0 0 0 0 0 0 0 127 0" result="hardAlpha"/>
<feOffset dy="4"/>
<feGaussianBlur stdDeviation="2"/>
<feComposite in2="hardAlpha" operator="out"/>
<feColorMatrix type="matrix" values="0 0 0 0 0 0 0 0 0 0 0 0 0 0 0 0 0 0 0.25 0"/>
<feBlend mode="normal" in2="BackgroundImageFix" result="effect1_dropShadow_0_1"/>
<feBlend mode="normal" in="SourceGraphic" in2="effect1_dropShadow_0_1" result="shape"/>
</filter>
<filter id="filter1_d_0_1" x="70.7328" y="15.0162" width="22.7279" height="22.7279" filterUnits="userSpaceOnUse" color-interpolation-filters="sRGB">
<feFlood flood-opacity="0" result="BackgroundImageFix"/>
<feColorMatrix in="SourceAlpha" type="matrix" values="0 0 0 0 0 0 0 0 0 0 0 0 0 0 0 0 0 0 127 0" result="hardAlpha"/>
<feOffset dy="4"/>
<feGaussianBlur stdDeviation="2"/>
<feComposite in2="hardAlpha" operator="out"/>
<feColorMatrix type="matrix" values="0 0 0 0 0 0 0 0 0 0 0 0 0 0 0 0 0 0 0.25 0"/>
<feBlend mode="normal" in2="BackgroundImageFix" result="effect1_dropShadow_0_1"/>
<feBlend mode="normal" in="SourceGraphic" in2="effect1_dropShadow_0_1" result="shape"/>
</filter>
</defs>
</svg>
