<svg width="1280" height="736" viewBox="0 0 1280 736" fill="none" xmlns="http://www.w3.org/2000/svg">
<g filter="url(#filter0_d_57_84)">
<path d="M1279.5 735.5C1182.88 695.261 1290 739.873 1279.5 735.5C1279.5 735.5 1228.6 710.783 1171 686.796C1109 671 1065.07 686.639 1019.36 697.625C964.833 710.727 896.981 727.035 800.356 686.796C703.727 646.555 667.507 586.907 638.403 538.979C614.002 498.794 596.372 469.76 538.77 445.772C481.168 421.784 448.141 429.722 402.43 440.709C347.909 453.812 280.058 470.121 183.43 429.88C86.8009 389.64 50.5814 329.992 21.4774 282.064C0.499949 227.41 0.500009 258.495 0.500005 184.097L0.499956 15.5001C97.1283 55.7404 126.065 117.36 155.169 165.288C179.569 205.473 197.198 234.507 254.802 258.495C312.405 282.484 345.431 274.546 391.142 263.558C445.662 250.455 513.513 234.146 610.142 274.387C706.771 314.628 742.991 374.276 772.096 422.204C796.496 462.389 814.126 491.423 871.729 515.411C929.33 539.399 962.359 531.462 1008.07 520.472C1062.59 507.371 1130.44 491.062 1227.07 531.305C1258 544.184 1278 554.5 1280 560C1287.84 550.5 1296.5 540 1280 560L1279.5 735.5Z" fill="#939393"/>
<path d="M614.347 382.775C602.151 375.217 588.449 368.254 573.622 362.079C571.755 361.302 569.871 360.536 568.015 359.802L569.635 355.786C571.502 356.523 573.406 357.296 575.288 358.079C590.263 364.315 604.103 371.351 616.428 378.991L614.347 382.775ZM1246.98 650.328C1233.69 640.496 1219.08 631.935 1202.29 624.155L1204.06 620.203C1221.03 628.067 1235.81 636.727 1249.26 646.681L1246.98 650.328ZM1102.29 598.615L1102.89 594.389C1120.19 594.887 1137.24 597.442 1155.04 602.208L1153.75 606.334C1136.17 601.627 1119.34 599.103 1102.29 598.615ZM466.063 342.01L466.383 337.788C484.337 336.708 501.694 337.778 519.451 341.061L518.383 345.239C500.874 342.001 483.761 340.946 466.063 342.01ZM60.1531 184.097C48.9905 168.973 37.1955 156.239 24.0948 145.167L26.5351 141.643C39.8255 152.875 51.7865 165.786 63.1008 181.117L60.1531 184.097ZM688.412 457.406C677.077 440.04 666.828 427.026 655.187 415.21L657.837 411.879C669.638 423.856 680.008 437.025 691.472 454.584L688.412 457.406ZM995.38 615.465L995.161 611.318C1001.33 609.928 1007.56 608.43 1013.57 606.98C1025.05 604.226 1036.92 601.374 1048.93 599.115L1049.03 603.286C1037.09 605.526 1025.27 608.37 1013.84 611.116C1007.81 612.567 1001.56 614.065 995.38 615.465ZM358.802 362.573L358.734 358.399C371.635 356.08 384.353 353.022 396.653 350.067C401.79 348.833 407.103 347.555 412.362 346.348L412.592 350.49C407.349 351.693 402.046 352.968 396.917 354.201C384.569 357.169 371.801 360.237 358.802 362.573ZM120.752 275.573C108.73 260.703 98.9004 244.974 89.8633 230.139L92.9804 227.41C101.958 242.147 111.717 257.767 123.611 272.477L120.752 275.573ZM750.728 547.318C739.224 535.34 728.969 522.047 717.479 504.215L720.549 501.411C731.92 519.056 742.053 532.196 753.408 544.016L750.728 547.318ZM888.392 619.614L889.497 615.444C907.026 618.896 924.109 620.165 941.709 619.321L941.348 623.543C923.494 624.4 906.17 623.115 888.392 619.614ZM252.875 358.27L254.201 354.154C271.76 359.048 288.548 361.77 305.529 362.475L304.888 366.699C287.671 365.984 270.658 363.226 252.875 358.27ZM204.012 339.845C187.133 331.841 172.428 323.019 159.059 312.873L161.375 309.25C174.579 319.269 189.114 327.988 205.807 335.903L204.012 339.845ZM835.209 603.103C819.312 596.483 804.699 588.963 791.771 580.752L793.885 576.985C806.67 585.107 821.135 592.549 836.875 599.103C837.925 599.54 838.968 599.969 840.022 600.396L838.374 604.402C837.329 603.98 836.268 603.544 835.209 603.103Z" fill="#2F2F2F"/>
</g>
<defs>
<filter id="filter0_d_57_84" x="-49.5" y="0.500061" width="1368.9" height="800.306" filterUnits="userSpaceOnUse" color-interpolation-filters="sRGB">
<feFlood flood-opacity="0" result="BackgroundImageFix"/>
<feColorMatrix in="SourceAlpha" type="matrix" values="0 0 0 0 0 0 0 0 0 0 0 0 0 0 0 0 0 0 127 0" result="hardAlpha"/>
<feOffset dx="-10" dy="25"/>
<feGaussianBlur stdDeviation="20"/>
<feComposite in2="hardAlpha" operator="out"/>
<feColorMatrix type="matrix" values="0 0 0 0 0 0 0 0 0 0 0 0 0 0 0 0 0 0 0.75 0"/>
<feBlend mode="normal" in2="BackgroundImageFix" result="effect1_dropShadow_57_84"/>
<feBlend mode="normal" in="SourceGraphic" in2="effect1_dropShadow_57_84" result="shape"/>
</filter>
</defs>
</svg>
