<svg width="37" height="630" viewBox="0 0 37 630" fill="none" xmlns="http://www.w3.org/2000/svg">
<rect x="20.5625" y="5.5022" width="618.996" height="4.125" rx="2.0625" transform="rotate(90 20.5625 5.5022)" fill="#D9D9D9"/>
<ellipse cx="18.5" cy="5.50218" rx="5.50218" ry="5.5" transform="rotate(90 18.5 5.50218)" fill="#CF2C2C"/>
<ellipse cx="18.5" cy="315" rx="5.50218" ry="5.5" transform="rotate(90 18.5 315)" fill="#CF2C2C"/>
<ellipse cx="18.5" cy="624.498" rx="5.50218" ry="5.5" transform="rotate(90 18.5 624.498)" fill="#CF2C2C"/>
<path d="M16.7322 162.707C17.7085 163.683 19.2915 163.683 20.2678 162.707L36.1777 146.797C37.154 145.82 37.154 144.238 36.1777 143.261C35.2014 142.285 33.6184 142.285 32.6421 143.261L18.5 157.403L4.35786 143.261C3.38155 142.285 1.79864 142.285 0.82233 143.261C-0.15398 144.238 -0.15398 145.82 0.82233 146.797L16.7322 162.707ZM16 160.251V160.939H21V160.251H16Z" fill="#D9D9D9"/>
<path d="M16.7322 472.204C17.7085 473.181 19.2915 473.181 20.2678 472.204L36.1777 456.295C37.154 455.318 37.154 453.735 36.1777 452.759C35.2014 451.783 33.6184 451.783 32.6421 452.759L18.5 466.901L4.35786 452.759C3.38155 451.783 1.79864 451.783 0.82233 452.759C-0.15398 453.735 -0.15398 455.318 0.82233 456.295L16.7322 472.204ZM16 469.749V470.437H21V469.749H16Z" fill="#D9D9D9"/>
</svg>
