<svg width="916" height="38" viewBox="0 0 916 38" fill="none"
  xmlns="http://www.w3.org/2000/svg">
  <rect x="8" y="16" width="900" height="6" rx="3" fill="#D9D9D9"/>
  <circle cx="8" cy="19" r="8" fill="#CF2C2C"/>
  <circle cx="458" cy="19" r="8" fill="#CF2C2C"/>
  <circle cx="908" cy="19" r="8" fill="#CF2C2C"/>
  <path d="M235.768 20.7678C236.744 19.7915 236.744 18.2085 235.768 17.2322L219.858 1.32233C218.882 0.34602 217.299 0.34602 216.322 1.32233C215.346 2.29864 215.346 3.88155 216.322 4.85786L230.464 19L216.322 33.1421C215.346 34.1184 215.346 35.7014 216.322 36.6777C217.299 37.654 218.882 37.654 219.858 36.6777L235.768 20.7678ZM233 21.5H234V16.5H233V21.5Z" fill="#D9D9D9"/>
  <path d="M685.768 20.7678C686.744 19.7915 686.744 18.2085 685.768 17.2322L669.858 1.32233C668.882 0.34602 667.299 0.34602 666.322 1.32233C665.346 2.29864 665.346 3.88155 666.322 4.85786L680.464 19L666.322 33.1421C665.346 34.1184 665.346 35.7014 666.322 36.6777C667.299 37.654 668.882 37.654 669.858 36.6777L685.768 20.7678ZM683 21.5H684V16.5H683V21.5Z" fill="#D9D9D9"/>
</svg>
